<?xml version="1.0" encoding="UTF-8" standalone="no"?>
<svg
   xmlns:dc="http://purl.org/dc/elements/1.1/"
   xmlns:cc="http://creativecommons.org/ns#"
   xmlns:rdf="http://www.w3.org/1999/02/22-rdf-syntax-ns#"
   xmlns:svg="http://www.w3.org/2000/svg"
   xmlns="http://www.w3.org/2000/svg"
   xmlns:sodipodi="http://sodipodi.sourceforge.net/DTD/sodipodi-0.dtd"
   xmlns:inkscape="http://www.inkscape.org/namespaces/inkscape"
   viewBox="0 0 44.999998 44.999998"
   version="1.1"
   xml:space="preserve"
   x="0px"
   y="0px"
   width="0.5in"
   height="0.5in"
   id="svg2"
   inkscape:version="0.92.3 (2405546, 2018-03-11)"
   sodipodi:docname="replacement-glyph.svg"
   inkscape:export-filename="/Users/jakebeal/projects/SBOL/SBOLv-realizations/Glyphs/user-defined/replacement-glyph-specification.png"
   inkscape:export-xdpi="300"
   inkscape:export-ydpi="300"><metadata
   id="metadata12"><rdf:RDF><cc:Work
       rdf:about=""><dc:format>image/svg+xml</dc:format><dc:type
         rdf:resource="http://purl.org/dc/dcmitype/StillImage" /><dc:title /></cc:Work></rdf:RDF></metadata><sodipodi:namedview
   pagecolor="#ffffff"
   bordercolor="#666666"
   borderopacity="1"
   objecttolerance="10"
   gridtolerance="10"
   guidetolerance="10"
   inkscape:pageopacity="0"
   inkscape:pageshadow="2"
   inkscape:window-width="1853"
   inkscape:window-height="1025"
   id="namedview10"
   showgrid="false"
   units="in"
   inkscape:zoom="13.350176"
   inkscape:cx="-2.3779161"
   inkscape:cy="27.618455"
   inkscape:window-x="67"
   inkscape:window-y="27"
   inkscape:window-maximized="1"
   inkscape:current-layer="svg2" /><defs
   id="defs4"><style
     type="text/css"
     id="style6"><![CDATA[
      path,circle,polygon {
        stroke:#000000;
        stroke-width: 3;
        stroke-linecap: round;
        stroke-linejoin: round;
        fill: none
      }]]></style></defs><rect
   style="opacity:1;fill:none;fill-opacity:1;stroke:#000000;stroke-width:1.72234631;stroke-linejoin:miter;stroke-miterlimit:4;stroke-dasharray:none;stroke-dashoffset:0;stroke-opacity:1"
   id="rect4136"
   width="18.319849"
   height="18.319849"
   x="21.229794"
   y="-11.238423"
   ry="0"
   transform="matrix(0.70710678,0.70710678,-0.70710678,0.70710678,0,0)" /><path
   d="m 27.998618,17.11085 q 0,0.947266 -0.429687,1.699219 -0.419922,0.751953 -1.582032,1.582031 l -0.742187,0.537109 q -0.664063,0.478516 -0.996094,0.966797 -0.322266,0.488282 -0.351562,1.074219 h -2.607422 q 0.05859,-0.996094 0.55664,-1.777344 0.507813,-0.78125 1.484375,-1.464843 1.044922,-0.722657 1.47461,-1.269532 0.429687,-0.55664 0.429687,-1.230468 0,-0.859375 -0.566406,-1.357422 -0.556641,-0.498047 -1.591797,-0.498047 -0.986328,0 -1.660156,0.576172 -0.664063,0.576172 -0.78125,1.523437 l -2.783203,-0.117187 q 0.263672,-1.982422 1.630859,-3.085938 1.367188,-1.103515 3.554688,-1.103515 2.314453,0 3.632812,1.054687 1.328125,1.044922 1.328125,2.890625 z m -6.787109,10.019531 v -2.636718 h 2.822265 v 2.636718 z"
   style="fill:#000000;fill-opacity:1;stroke:#000000;stroke-width:0.09375;stroke-linecap:round;stroke-linejoin:round;stroke-miterlimit:4;stroke-dasharray:none"
   id="path537"
   inkscape:connector-curvature="0" />
</svg>