

<?xml version="1.0" encoding="UTF-8" standalone="no"?> <svg    xmlns:dc="http://purl.org/dc/elements/1.1/"    xmlns:cc="http://creativecommons.org/ns#"    xmlns:rdf="http://www.w3.org/1999/02/22-rdf-syntax-ns#"    xmlns:svg="http://www.w3.org/2000/svg"    xmlns="http://www.w3.org/2000/svg"    xmlns:sodipodi="http://sodipodi.sourceforge.net/DTD/sodipodi-0.dtd"    xmlns:inkscape="http://www.inkscape.org/namespaces/inkscape"    viewBox="0 0 44.999998 44.999998"    version="1.1"    xml:space="preserve"    x="0px"    y="0px"    width="0.5in"    height="0.5in"    id="svg2"    inkscape:version="0.92.3 (2405546, 2018-03-11)"    sodipodi:docname="polyA.svg"    inkscape:export-filename="polyA-specification.png"    inkscape:export-xdpi="300"    inkscape:export-ydpi="300"><metadata    id="metadata12"><rdf:RDF><cc:Work        rdf:about=""><dc:format>image/svg+xml</dc:format><dc:type          rdf:resource="http://purl.org/dc/dcmitype/StillImage" /><dc:title /></cc:Work></rdf:RDF></metadata><sodipodi:namedview    pagecolor="#ffffff"    bordercolor="#666666"    borderopacity="1"    objecttolerance="10"    gridtolerance="10"    guidetolerance="10"    inkscape:pageopacity="0"    inkscape:pageshadow="2"    inkscape:window-width="1853"    inkscape:window-height="1025"    id="namedview10"    showgrid="false"    units="in"    inkscape:zoom="9.44"    inkscape:cx="-6.8326271"    inkscape:cy="24.576271"    inkscape:window-x="67"    inkscape:window-y="27"    inkscape:window-maximized="1"    inkscape:current-layer="svg2" /><defs    id="defs4"><style      type="text/css"      id="style6"><![CDATA[       path,circle {         stroke:#000000;         stroke-width: 3;         stroke-linecap: round;         stroke-linejoin: round;         fill: none       }]]></style></defs><path    id="path5313"    style="font-size:16.15233421px;line-height:1.25;stroke-width:0.46874998;stroke-miterlimit:4;stroke-dasharray:none;fill:none;fill-opacity:1;paint-order:normal;stroke-linecap:butt"    d="m 37.307618,44.999996 -0.98586,-2.839277 h -4.235255 l -0.985861,2.839277 h -2.32663 L 32.827869,33.88738 h 2.744635 l 4.038084,11.112616 z m -3.107431,-9.401163 -0.04732,0.173511 q -0.07887,0.283928 -0.189286,0.646725 -0.110416,0.362796 -1.356543,3.990762 h 3.194187 l -1.096277,-3.194187 -0.339136,-1.072616 z m -8.565154,9.401163 -0.98586,-2.839277 h -4.235256 l -0.98586,2.839277 h -2.32663 L 21.155284,33.88738 h 2.744635 l 4.038083,11.112616 z m -3.107432,-9.401163 -0.04732,0.173511 q -0.07887,0.283928 -0.189285,0.646725 -0.110416,0.362796 -1.356544,3.990762 h 3.194187 l -1.096276,-3.194187 -0.339136,-1.072616 z m -8.565154,9.401163 -0.98586,-2.839277 H 8.7413316 L 7.7554714,44.999996 H 5.4288412 L 9.4826985,33.88738 h 2.7446345 l 4.038084,11.112616 z m -3.107431,-9.401163 -0.04732,0.173511 q -0.07887,0.283928 -0.189285,0.646725 -0.110417,0.362796 -1.3565442,3.990762 H 12.456053 L 11.359776,37.215644 11.02064,36.143028 Z" /> </svg>

